{
  "source": "C:\\Users\\Peter\\Desktop\\stuff\\MIUN\\quantitative_research\\video_compression\\videos\\UVG\\YachtRide_1920x1080_120fps_420_8bit_YUV.y4m",
  "output": "C:\\Users\\Peter\\Desktop\\stuff\\MIUN\\quantitative_research\\video_compression\\compressed_videos\\UVG\\h264\\1.5\\YachtRide_1920x1080_120fps_420_8bit_YUV_h264.mp4",
  "codec": "h264",
  "ok": "[yuv4mpegpipe @ 0000022af7ef5ec0] Stream #0: not enough frames to estimate rate; consider increasing probesize\nInput #0, yuv4mpegpipe, from 'C:\\Users\\Peter\\Desktop\\stuff\\MIUN\\quantitative_research\\video_compression\\videos\\UVG\\YachtRide_1920x1080_120fps_420_8bit_YUV.y4m':\n  Duration: 00:00:05.00, start: 0.000000, bitrate: 2985989 kb/s\n  Stream #0:0: Video: rawvideo (I420 / 0x30323449), yuv420p(progressive), 1920x1080, 120 fps, 120 tbr, 120 tbn\n[out#0/mp4 @ 0000022af7ef9ac0] Codec AVOption b:a (set bitrate (in bits/s)) has not been used for any stream. The most likely reason is either wrong type (e.g. a video option with no video streams) or that it is a private option of some decoder which was not actually used for any stream.\nStream mapping:\n  Stream #0:0 -> #0:0 (rawvideo (native) -> h264 (libx264))\nPress [q] to stop, [?] for help\n[libx264 @ 0000022af7efcb80] using cpu capabilities: MMX2 SSE2Fast SSSE3 SSE4.2 AVX FMA3 BMI2 AVX2\n[libx264 @ 0000022af7efcb80] profile High, level 5.1, 4:2:0, 8-bit\n[libx264 @ 0000022af7efcb80] 264 - core 165 r3222 b35605a - H.264/MPEG-4 AVC codec - Copyleft 2003-2025 - http://www.videolan.org/x264.html - options: cabac=1 ref=5 deblock=1:0:0 analyse=0x3:0x113 me=hex subme=8 psy=1 psy_rd=1.00:0.00 mixed_ref=1 me_range=16 chroma_me=1 trellis=2 8x8dct=1 cqm=0 deadzone=21,11 fast_pskip=1 chroma_qp_offset=-2 threads=18 lookahead_threads=3 sliced_threads=0 nr=0 decimate=1 interlaced=0 bluray_compat=0 constrained_intra=0 bframes=3 b_pyramid=2 b_adapt=1 b_bias=0 direct=3 weightb=1 open_gop=0 weightp=2 keyint=250 keyint_min=25 scenecut=40 intra_refresh=0 rc_lookahead=50 rc=cbr mbtree=1 bitrate=1500 ratetol=1.0 qcomp=0.60 qpmin=0 qpmax=69 qpstep=4 vbv_maxrate=1500 vbv_bufsize=1500 nal_hrd=none filler=0 ip_ratio=1.40 aq=1:1.00\nOutput #0, mp4, to 'C:\\Users\\Peter\\Desktop\\stuff\\MIUN\\quantitative_research\\video_compression\\compressed_videos\\UVG\\h264\\1.5\\YachtRide_1920x1080_120fps_420_8bit_YUV_h264.mp4':\n  Metadata:\n    encoder         : Lavf62.3.100\n  Stream #0:0: Video: h264 (avc1 / 0x31637661), yuv420p(tv, progressive), 1920x1080, q=2-31, 1500 kb/s, 120 fps, 15360 tbn\n    Metadata:\n      encoder         : Lavc62.11.100 libx264\n    Side data:\n      cpb: bitrate max/min/avg: 1500000/0/1500000 buffer size: 1500000 vbv_delay: N/A\nframe=    0 fps=0.0 q=0.0 size=       0KiB time=N/A bitrate=N/A speed=N/A elapsed=0:00:00.51    \nframe=    8 fps=7.8 q=54.0 size=       0KiB time=00:00:00.05 bitrate=   7.7kbits/s speed=0.0486x elapsed=0:00:01.02    \nframe=   44 fps= 28 q=50.0 size=       0KiB time=00:00:00.35 bitrate=   1.1kbits/s speed=0.226x elapsed=0:00:01.55    \nframe=   80 fps= 39 q=50.0 size=       0KiB time=00:00:00.65 bitrate=   0.6kbits/s speed=0.314x elapsed=0:00:02.06    \nframe=  120 fps= 46 q=49.0 size=       0KiB time=00:00:00.98 bitrate=   0.4kbits/s speed=0.38x elapsed=0:00:02.58    \nframe=  160 fps= 52 q=50.0 size=       0KiB time=00:00:01.31 bitrate=   0.3kbits/s speed=0.425x elapsed=0:00:03.10    \nframe=  196 fps= 54 q=50.0 size=     256KiB time=00:00:01.61 bitrate=1297.4kbits/s speed=0.445x elapsed=0:00:03.63    \nframe=  232 fps= 56 q=51.0 size=     256KiB time=00:00:01.91 bitrate=1094.4kbits/s speed=0.463x elapsed=0:00:04.14    \nframe=  250 fps= 54 q=51.0 size=     256KiB time=00:00:02.06 bitrate=1014.9kbits/s speed=0.444x elapsed=0:00:04.65    \nframe=  286 fps= 55 q=51.0 size=     256KiB time=00:00:02.36 bitrate= 886.3kbits/s speed=0.458x elapsed=0:00:05.17    \nframe=  326 fps= 57 q=51.0 size=     256KiB time=00:00:02.70 bitrate= 776.9kbits/s speed=0.475x elapsed=0:00:05.68    \nframe=  364 fps= 58 q=51.0 size=     512KiB time=00:00:03.00 bitrate=1398.2kbits/s speed=0.482x elapsed=0:00:06.22    \nframe=  402 fps= 59 q=51.0 size=     512KiB time=00:00:03.33 bitrate=1258.4kbits/s speed=0.493x elapsed=0:00:06.75    \nframe=  434 fps= 59 q=51.0 size=     512KiB time=00:00:03.60 bitrate=1165.2kbits/s speed=0.493x elapsed=0:00:07.29    \nframe=  470 fps= 60 q=51.0 size=     512KiB time=00:00:03.90 bitrate=1075.6kbits/s speed=0.499x elapsed=0:00:07.82    \nframe=  488 fps= 59 q=51.0 size=     512KiB time=00:00:04.05 bitrate=1035.7kbits/s speed=0.486x elapsed=0:00:08.32    \nframe=  524 fps= 59 q=51.0 size=     768KiB time=00:00:04.35 bitrate=1446.4kbits/s speed=0.492x elapsed=0:00:08.84    \n[mp4 @ 0000022af7ef9bc0] Starting second pass: moving the moov atom to the beginning of the file\n[out#0/mp4 @ 0000022af7ef9ac0] video:870KiB audio:0KiB subtitle:0KiB other streams:0KiB global headers:0KiB muxing overhead: 0.902393%\nframe=  600 fps= 64 q=-1.0 Lsize=     878KiB time=00:00:04.98 bitrate=1443.8kbits/s speed=0.533x elapsed=0:00:09.34    \n[libx264 @ 0000022af7efcb80] frame I:3     Avg QP:45.41  size: 10532\n[libx264 @ 0000022af7efcb80] frame P:151   Avg QP:47.53  size:  2884\n[libx264 @ 0000022af7efcb80] frame B:446   Avg QP:48.35  size:   949\n[libx264 @ 0000022af7efcb80] consecutive B-frames:  0.8%  0.0%  0.5% 98.7%\n[libx264 @ 0000022af7efcb80] mb I  I16..4: 34.5% 65.2%  0.3%\n[libx264 @ 0000022af7efcb80] mb P  I16..4:  2.2%  1.2%  0.0%  P16..4: 15.6%  0.5%  0.6%  0.0%  0.0%    skip:79.9%\n[libx264 @ 0000022af7efcb80] mb B  I16..4:  0.0%  0.0%  0.0%  B16..8: 13.0%  0.1%  0.0%  direct: 0.0%  skip:87.0%  L0:25.0% L1:74.9% BI: 0.0%\n[libx264 @ 0000022af7efcb80] 8x8 transform intra:45.9% inter:98.6%\n[libx264 @ 0000022af7efcb80] direct mvs  spatial:97.8% temporal:2.2%\n[libx264 @ 0000022af7efcb80] coded y,uvDC,uvAC intra: 4.1% 15.5% 0.8% inter: 0.2% 0.5% 0.0%\n[libx264 @ 0000022af7efcb80] i16 v,h,dc,p: 22% 56%  4% 17%\n[libx264 @ 0000022af7efcb80] i8 v,h,dc,ddl,ddr,vr,hd,vl,hu: 11% 19% 52%  2%  4%  2%  5%  1%  4%\n[libx264 @ 0000022af7efcb80] i4 v,h,dc,ddl,ddr,vr,hd,vl,hu: 13% 21% 17%  8%  8%  7% 10%  4% 11%\n[libx264 @ 0000022af7efcb80] i8c dc,h,v,p: 85% 13%  2%  0%\n[libx264 @ 0000022af7efcb80] Weighted P-Frames: Y:0.0% UV:0.0%\n[libx264 @ 0000022af7efcb80] ref P L0: 61.5%  1.8% 21.6%  6.3%  8.8%\n[libx264 @ 0000022af7efcb80] ref B L0: 78.7% 15.1%  4.6%  1.6%\n[libx264 @ 0000022af7efcb80] ref B L1: 93.0%  7.0%\n[libx264 @ 0000022af7efcb80] kb/s:1424.86\n",
  "seconds": 9.537673950195312,
  "probe_out": {}
}